<mxfile host="app.diagrams.net" modified="2021-07-05T08:31:11.807Z" agent="5.0 (Windows NT 10.0; WOW64) AppleWebKit/537.36 (KHTML, like Gecko) Chrome/72.0.3626.121 Safari/537.36" etag="mjjNImTJDRJYywKFIUxZ" version="14.8.4" type="github">
  <diagram id="yUqjsc1ejoCKv3i193ec" name="Page-1">
    <mxGraphModel dx="868" dy="450" grid="1" gridSize="10" guides="1" tooltips="1" connect="1" arrows="1" fold="1" page="1" pageScale="1" pageWidth="827" pageHeight="1169" math="0" shadow="0">
      <root>
        <mxCell id="0" />
        <mxCell id="1" parent="0" />
        <mxCell id="hJm0JbculfphwUFRi8az-3" value="" style="edgeStyle=orthogonalEdgeStyle;rounded=0;orthogonalLoop=1;jettySize=auto;html=1;" edge="1" parent="1" source="hJm0JbculfphwUFRi8az-1" target="hJm0JbculfphwUFRi8az-2">
          <mxGeometry relative="1" as="geometry" />
        </mxCell>
        <mxCell id="hJm0JbculfphwUFRi8az-5" value="" style="edgeStyle=orthogonalEdgeStyle;rounded=0;orthogonalLoop=1;jettySize=auto;html=1;" edge="1" parent="1" source="hJm0JbculfphwUFRi8az-1" target="hJm0JbculfphwUFRi8az-4">
          <mxGeometry relative="1" as="geometry" />
        </mxCell>
        <mxCell id="hJm0JbculfphwUFRi8az-6" value="" style="edgeStyle=orthogonalEdgeStyle;rounded=0;orthogonalLoop=1;jettySize=auto;html=1;" edge="1" parent="1" source="hJm0JbculfphwUFRi8az-1" target="hJm0JbculfphwUFRi8az-4">
          <mxGeometry relative="1" as="geometry" />
        </mxCell>
        <mxCell id="hJm0JbculfphwUFRi8az-10" value="" style="edgeStyle=orthogonalEdgeStyle;rounded=0;orthogonalLoop=1;jettySize=auto;html=1;" edge="1" parent="1" source="hJm0JbculfphwUFRi8az-1" target="hJm0JbculfphwUFRi8az-9">
          <mxGeometry relative="1" as="geometry" />
        </mxCell>
        <mxCell id="hJm0JbculfphwUFRi8az-14" value="" style="edgeStyle=orthogonalEdgeStyle;rounded=0;orthogonalLoop=1;jettySize=auto;html=1;" edge="1" parent="1" source="hJm0JbculfphwUFRi8az-1" target="hJm0JbculfphwUFRi8az-13">
          <mxGeometry relative="1" as="geometry" />
        </mxCell>
        <mxCell id="hJm0JbculfphwUFRi8az-18" style="edgeStyle=orthogonalEdgeStyle;rounded=0;orthogonalLoop=1;jettySize=auto;html=1;entryX=0;entryY=0.5;entryDx=0;entryDy=0;" edge="1" parent="1" source="hJm0JbculfphwUFRi8az-1" target="hJm0JbculfphwUFRi8az-15">
          <mxGeometry relative="1" as="geometry" />
        </mxCell>
        <mxCell id="hJm0JbculfphwUFRi8az-19" style="edgeStyle=orthogonalEdgeStyle;rounded=0;orthogonalLoop=1;jettySize=auto;html=1;entryX=0;entryY=0.5;entryDx=0;entryDy=0;" edge="1" parent="1" source="hJm0JbculfphwUFRi8az-1" target="hJm0JbculfphwUFRi8az-17">
          <mxGeometry relative="1" as="geometry" />
        </mxCell>
        <mxCell id="hJm0JbculfphwUFRi8az-20" style="edgeStyle=orthogonalEdgeStyle;rounded=0;orthogonalLoop=1;jettySize=auto;html=1;entryX=0;entryY=0.5;entryDx=0;entryDy=0;" edge="1" parent="1" source="hJm0JbculfphwUFRi8az-1" target="hJm0JbculfphwUFRi8az-16">
          <mxGeometry relative="1" as="geometry" />
        </mxCell>
        <mxCell id="hJm0JbculfphwUFRi8az-25" value="" style="edgeStyle=orthogonalEdgeStyle;rounded=0;orthogonalLoop=1;jettySize=auto;html=1;" edge="1" parent="1" source="hJm0JbculfphwUFRi8az-1" target="hJm0JbculfphwUFRi8az-24">
          <mxGeometry relative="1" as="geometry" />
        </mxCell>
        <mxCell id="hJm0JbculfphwUFRi8az-32" value="" style="edgeStyle=orthogonalEdgeStyle;rounded=0;orthogonalLoop=1;jettySize=auto;html=1;" edge="1" parent="1" source="hJm0JbculfphwUFRi8az-1" target="hJm0JbculfphwUFRi8az-24">
          <mxGeometry relative="1" as="geometry" />
        </mxCell>
        <mxCell id="hJm0JbculfphwUFRi8az-35" style="edgeStyle=orthogonalEdgeStyle;rounded=0;orthogonalLoop=1;jettySize=auto;html=1;entryX=0.5;entryY=1;entryDx=0;entryDy=0;" edge="1" parent="1" source="hJm0JbculfphwUFRi8az-1" target="hJm0JbculfphwUFRi8az-34">
          <mxGeometry relative="1" as="geometry" />
        </mxCell>
        <mxCell id="hJm0JbculfphwUFRi8az-1" value="&lt;font style=&quot;vertical-align: inherit&quot;&gt;&lt;font style=&quot;vertical-align: inherit&quot;&gt;GL_Detail&lt;/font&gt;&lt;/font&gt;" style="rounded=0;whiteSpace=wrap;html=1;" vertex="1" parent="1">
          <mxGeometry x="304" y="270" width="120" height="60" as="geometry" />
        </mxCell>
        <mxCell id="hJm0JbculfphwUFRi8az-22" value="" style="edgeStyle=orthogonalEdgeStyle;rounded=0;orthogonalLoop=1;jettySize=auto;html=1;" edge="1" parent="1" source="hJm0JbculfphwUFRi8az-2" target="hJm0JbculfphwUFRi8az-21">
          <mxGeometry relative="1" as="geometry" />
        </mxCell>
        <mxCell id="hJm0JbculfphwUFRi8az-29" value="" style="edgeStyle=orthogonalEdgeStyle;rounded=0;orthogonalLoop=1;jettySize=auto;html=1;" edge="1" parent="1" source="hJm0JbculfphwUFRi8az-2" target="hJm0JbculfphwUFRi8az-28">
          <mxGeometry relative="1" as="geometry" />
        </mxCell>
        <mxCell id="hJm0JbculfphwUFRi8az-2" value="&lt;font style=&quot;vertical-align: inherit&quot;&gt;&lt;font style=&quot;vertical-align: inherit&quot;&gt;&lt;font style=&quot;vertical-align: inherit&quot;&gt;&lt;font style=&quot;vertical-align: inherit&quot;&gt;GL_Voucher&lt;/font&gt;&lt;/font&gt;&lt;/font&gt;&lt;/font&gt;" style="rounded=0;whiteSpace=wrap;html=1;" vertex="1" parent="1">
          <mxGeometry x="150" y="410" width="120" height="60" as="geometry" />
        </mxCell>
        <mxCell id="hJm0JbculfphwUFRi8az-4" value="&lt;font style=&quot;vertical-align: inherit&quot;&gt;&lt;font style=&quot;vertical-align: inherit&quot;&gt;&lt;font style=&quot;vertical-align: inherit&quot;&gt;&lt;font style=&quot;vertical-align: inherit&quot;&gt;BD_ACCSUBJ&lt;/font&gt;&lt;/font&gt;&lt;/font&gt;&lt;/font&gt;" style="rounded=0;whiteSpace=wrap;html=1;" vertex="1" parent="1">
          <mxGeometry x="280" y="410" width="120" height="60" as="geometry" />
        </mxCell>
        <mxCell id="hJm0JbculfphwUFRi8az-12" value="" style="edgeStyle=orthogonalEdgeStyle;rounded=0;orthogonalLoop=1;jettySize=auto;html=1;" edge="1" parent="1" source="hJm0JbculfphwUFRi8az-9" target="hJm0JbculfphwUFRi8az-11">
          <mxGeometry relative="1" as="geometry" />
        </mxCell>
        <mxCell id="hJm0JbculfphwUFRi8az-9" value="&lt;font style=&quot;vertical-align: inherit&quot;&gt;&lt;font style=&quot;vertical-align: inherit&quot;&gt;&lt;font style=&quot;vertical-align: inherit&quot;&gt;&lt;font style=&quot;vertical-align: inherit&quot;&gt;GL_FIXTMPFREEVALUE&lt;/font&gt;&lt;/font&gt;&lt;/font&gt;&lt;/font&gt;" style="rounded=0;whiteSpace=wrap;html=1;" vertex="1" parent="1">
          <mxGeometry x="424" y="410" width="156" height="60" as="geometry" />
        </mxCell>
        <mxCell id="hJm0JbculfphwUFRi8az-11" value="&lt;font style=&quot;vertical-align: inherit&quot;&gt;&lt;font style=&quot;vertical-align: inherit&quot;&gt;&lt;font style=&quot;vertical-align: inherit&quot;&gt;&lt;font style=&quot;vertical-align: inherit&quot;&gt;&lt;font style=&quot;vertical-align: inherit&quot;&gt;&lt;font style=&quot;vertical-align: inherit&quot;&gt;BD_CUBASDOC&lt;/font&gt;&lt;/font&gt;&lt;/font&gt;&lt;/font&gt;&lt;/font&gt;&lt;/font&gt;" style="rounded=0;whiteSpace=wrap;html=1;" vertex="1" parent="1">
          <mxGeometry x="434" y="510" width="136" height="60" as="geometry" />
        </mxCell>
        <mxCell id="hJm0JbculfphwUFRi8az-13" value="&lt;font style=&quot;vertical-align: inherit&quot;&gt;&lt;font style=&quot;vertical-align: inherit&quot;&gt;&lt;font style=&quot;vertical-align: inherit&quot;&gt;&lt;font style=&quot;vertical-align: inherit&quot;&gt;GL_FREEVALUE&lt;/font&gt;&lt;/font&gt;&lt;/font&gt;&lt;/font&gt;" style="rounded=0;whiteSpace=wrap;html=1;" vertex="1" parent="1">
          <mxGeometry x="504" y="270" width="120" height="60" as="geometry" />
        </mxCell>
        <mxCell id="hJm0JbculfphwUFRi8az-15" value="&lt;font style=&quot;vertical-align: inherit&quot;&gt;&lt;font style=&quot;vertical-align: inherit&quot;&gt;&lt;font style=&quot;vertical-align: inherit&quot;&gt;&lt;font style=&quot;vertical-align: inherit&quot;&gt;GL_FREEVALUE&lt;/font&gt;&lt;/font&gt;&lt;/font&gt;&lt;/font&gt;" style="rounded=0;whiteSpace=wrap;html=1;" vertex="1" parent="1">
          <mxGeometry x="504" y="200" width="120" height="60" as="geometry" />
        </mxCell>
        <mxCell id="hJm0JbculfphwUFRi8az-16" value="&lt;font style=&quot;vertical-align: inherit&quot;&gt;&lt;font style=&quot;vertical-align: inherit&quot;&gt;&lt;font style=&quot;vertical-align: inherit&quot;&gt;&lt;font style=&quot;vertical-align: inherit&quot;&gt;GL_FREEVALUE&lt;/font&gt;&lt;/font&gt;&lt;/font&gt;&lt;/font&gt;" style="rounded=0;whiteSpace=wrap;html=1;" vertex="1" parent="1">
          <mxGeometry x="504" y="60" width="120" height="60" as="geometry" />
        </mxCell>
        <mxCell id="hJm0JbculfphwUFRi8az-17" value="&lt;font style=&quot;vertical-align: inherit&quot;&gt;&lt;font style=&quot;vertical-align: inherit&quot;&gt;&lt;font style=&quot;vertical-align: inherit&quot;&gt;&lt;font style=&quot;vertical-align: inherit&quot;&gt;GL_FREEVALUE&lt;/font&gt;&lt;/font&gt;&lt;/font&gt;&lt;/font&gt;" style="rounded=0;whiteSpace=wrap;html=1;" vertex="1" parent="1">
          <mxGeometry x="504" y="130" width="120" height="60" as="geometry" />
        </mxCell>
        <mxCell id="hJm0JbculfphwUFRi8az-21" value="&lt;font style=&quot;vertical-align: inherit&quot;&gt;&lt;font style=&quot;vertical-align: inherit&quot;&gt;&lt;font style=&quot;vertical-align: inherit&quot;&gt;&lt;font style=&quot;vertical-align: inherit&quot;&gt;&lt;font style=&quot;vertical-align: inherit&quot;&gt;&lt;font style=&quot;vertical-align: inherit&quot;&gt;BD_VOUCHERTYPE&lt;/font&gt;&lt;/font&gt;&lt;/font&gt;&lt;/font&gt;&lt;/font&gt;&lt;/font&gt;" style="rounded=0;whiteSpace=wrap;html=1;" vertex="1" parent="1">
          <mxGeometry x="150" y="550" width="120" height="60" as="geometry" />
        </mxCell>
        <mxCell id="hJm0JbculfphwUFRi8az-27" value="" style="edgeStyle=orthogonalEdgeStyle;rounded=0;orthogonalLoop=1;jettySize=auto;html=1;" edge="1" parent="1" source="hJm0JbculfphwUFRi8az-24" target="hJm0JbculfphwUFRi8az-26">
          <mxGeometry relative="1" as="geometry" />
        </mxCell>
        <mxCell id="hJm0JbculfphwUFRi8az-24" value="&lt;font style=&quot;vertical-align: inherit&quot;&gt;&lt;font style=&quot;vertical-align: inherit&quot;&gt;&lt;font style=&quot;vertical-align: inherit&quot;&gt;&lt;font style=&quot;vertical-align: inherit&quot;&gt;GL_CASHFLOWCASE&lt;/font&gt;&lt;/font&gt;&lt;/font&gt;&lt;/font&gt;" style="rounded=0;whiteSpace=wrap;html=1;" vertex="1" parent="1">
          <mxGeometry x="304" y="160" width="120" height="60" as="geometry" />
        </mxCell>
        <mxCell id="hJm0JbculfphwUFRi8az-26" value="&lt;font style=&quot;vertical-align: inherit&quot;&gt;&lt;font style=&quot;vertical-align: inherit&quot;&gt;&lt;font style=&quot;vertical-align: inherit&quot;&gt;&lt;font style=&quot;vertical-align: inherit&quot;&gt;&lt;font style=&quot;vertical-align: inherit&quot;&gt;&lt;font style=&quot;vertical-align: inherit&quot;&gt;BD_CASHFLOW&lt;/font&gt;&lt;/font&gt;&lt;/font&gt;&lt;/font&gt;&lt;/font&gt;&lt;/font&gt;" style="rounded=0;whiteSpace=wrap;html=1;" vertex="1" parent="1">
          <mxGeometry x="304" y="60" width="120" height="60" as="geometry" />
        </mxCell>
        <mxCell id="hJm0JbculfphwUFRi8az-28" value="&lt;font style=&quot;vertical-align: inherit&quot;&gt;&lt;font style=&quot;vertical-align: inherit&quot;&gt;&lt;font style=&quot;vertical-align: inherit&quot;&gt;&lt;font style=&quot;vertical-align: inherit&quot;&gt;&lt;font style=&quot;vertical-align: inherit&quot;&gt;&lt;font style=&quot;vertical-align: inherit&quot;&gt;SM_USER&lt;/font&gt;&lt;/font&gt;&lt;/font&gt;&lt;/font&gt;&lt;/font&gt;&lt;/font&gt;" style="rounded=0;whiteSpace=wrap;html=1;" vertex="1" parent="1">
          <mxGeometry x="10" y="550" width="120" height="60" as="geometry" />
        </mxCell>
        <mxCell id="hJm0JbculfphwUFRi8az-34" value="BD_CURRTYPE" style="rounded=0;whiteSpace=wrap;html=1;" vertex="1" parent="1">
          <mxGeometry x="150" y="150" width="120" height="60" as="geometry" />
        </mxCell>
      </root>
    </mxGraphModel>
  </diagram>
</mxfile>
